<svg width="76" height="76" viewBox="0 0 76 76" fill="none" xmlns="http://www.w3.org/2000/svg">
<path d="M34.675 27.2992C34.2416 27.049 33.75 26.9173 33.2495 26.9174C32.7491 26.9175 32.2575 27.0493 31.8242 27.2997C31.3909 27.55 31.0311 27.9101 30.7811 28.3436C30.5311 28.7771 30.3997 29.2688 30.4 29.7692V46.2346C30.3997 46.735 30.5311 47.2267 30.7811 47.6602C31.0311 48.0938 31.3909 48.4538 31.8242 48.7042C32.2575 48.9545 32.7491 49.0864 33.2495 49.0864C33.75 49.0865 34.2416 48.9548 34.675 48.7046L50.35 39.6454C50.6388 39.4786 50.8786 39.2388 51.0454 38.95C51.2121 38.6611 51.2999 38.3335 51.2999 38C51.2999 37.6665 51.2121 37.3389 51.0454 37.0501C50.8786 36.7612 50.6388 36.5214 50.35 36.3546L34.675 27.2992ZM7.59998 38C7.59998 29.9374 10.8028 22.2051 16.5039 16.504C22.205 10.8029 29.9374 7.60001 38 7.60001C46.0626 7.60001 53.7949 10.8029 59.496 16.504C65.1971 22.2051 68.4 29.9374 68.4 38C68.4 46.0626 65.1971 53.7949 59.496 59.4961C53.7949 65.1972 46.0626 68.4 38 68.4C29.9374 68.4 22.205 65.1972 16.5039 59.4961C10.8028 53.7949 7.59998 46.0626 7.59998 38ZM38 11.4C34.5068 11.4 31.0479 12.088 27.8206 13.4248C24.5933 14.7616 21.661 16.7209 19.1909 19.191C16.7209 21.661 14.7616 24.5934 13.4248 27.8206C12.088 31.0479 11.4 34.5068 11.4 38C11.4 41.4932 12.088 44.9521 13.4248 48.1794C14.7616 51.4067 16.7209 54.339 19.1909 56.809C21.661 59.2791 24.5933 61.2384 27.8206 62.5752C31.0479 63.912 34.5068 64.6 38 64.6C45.0547 64.6 51.8205 61.7975 56.809 56.809C61.7975 51.8206 64.6 45.0548 64.6 38C64.6 30.9452 61.7975 24.1794 56.809 19.191C51.8205 14.2025 45.0547 11.4 38 11.4Z" fill="white"/>
</svg>
