<svg width="103" height="26" viewBox="0 0 103 26" fill="none" xmlns="http://www.w3.org/2000/svg">
<path d="M0.938 1.2H8.962V18.778H19.706V25H0.938V1.2ZM34.0683 25.544C31.507 25.544 29.2063 25.0113 27.1663 23.946C25.1263 22.8807 23.5283 21.4073 22.3723 19.526C21.2163 17.622 20.6383 15.48 20.6383 13.1C20.6383 10.72 21.2163 8.58933 22.3723 6.708C23.5283 4.804 25.1263 3.31933 27.1663 2.254C29.2063 1.18867 31.507 0.655999 34.0683 0.655999C36.6297 0.655999 38.9303 1.18867 40.9703 2.254C43.0103 3.31933 44.6083 4.804 45.7643 6.708C46.9203 8.58933 47.4983 10.72 47.4983 13.1C47.4983 15.48 46.9203 17.622 45.7643 19.526C44.6083 21.4073 43.0103 22.8807 40.9703 23.946C38.9303 25.0113 36.6297 25.544 34.0683 25.544ZM34.0683 19.05C35.0657 19.05 35.961 18.812 36.7543 18.336C37.5703 17.8373 38.2163 17.146 38.6923 16.262C39.1683 15.3553 39.4063 14.3013 39.4063 13.1C39.4063 11.8987 39.1683 10.856 38.6923 9.972C38.2163 9.06533 37.5703 8.374 36.7543 7.898C35.961 7.39933 35.0657 7.15 34.0683 7.15C33.071 7.15 32.1643 7.39933 31.3483 7.898C30.555 8.374 29.9203 9.06533 29.4443 9.972C28.9683 10.856 28.7303 11.8987 28.7303 13.1C28.7303 14.3013 28.9683 15.3553 29.4443 16.262C29.9203 17.146 30.555 17.8373 31.3483 18.336C32.1643 18.812 33.071 19.05 34.0683 19.05ZM66.1527 12.454H73.1227V22.518C71.7173 23.4927 70.0853 24.2407 68.2267 24.762C66.368 25.2833 64.5433 25.544 62.7527 25.544C60.214 25.544 57.936 25.0227 55.9187 23.98C53.9013 22.9147 52.3147 21.4413 51.1587 19.56C50.0253 17.656 49.4587 15.5027 49.4587 13.1C49.4587 10.6973 50.0253 8.55533 51.1587 6.674C52.3147 4.77 53.9127 3.29667 55.9527 2.254C58.0153 1.18867 60.3387 0.655999 62.9227 0.655999C65.2573 0.655999 67.3427 1.05267 69.1787 1.846C71.0373 2.61667 72.5787 3.75 73.8027 5.246L68.6687 9.768C67.1727 8.02267 65.3933 7.15 63.3307 7.15C61.5627 7.15 60.1573 7.68267 59.1147 8.748C58.072 9.81333 57.5507 11.264 57.5507 13.1C57.5507 14.8907 58.0607 16.33 59.0807 17.418C60.1233 18.506 61.506 19.05 63.2287 19.05C64.2487 19.05 65.2233 18.8573 66.1527 18.472V12.454ZM89.0195 25.544C86.4582 25.544 84.1575 25.0113 82.1175 23.946C80.0775 22.8807 78.4795 21.4073 77.3235 19.526C76.1675 17.622 75.5895 15.48 75.5895 13.1C75.5895 10.72 76.1675 8.58933 77.3235 6.708C78.4795 4.804 80.0775 3.31933 82.1175 2.254C84.1575 1.18867 86.4582 0.655999 89.0195 0.655999C91.5808 0.655999 93.8815 1.18867 95.9215 2.254C97.9615 3.31933 99.5595 4.804 100.716 6.708C101.872 8.58933 102.45 10.72 102.45 13.1C102.45 15.48 101.872 17.622 100.716 19.526C99.5595 21.4073 97.9615 22.8807 95.9215 23.946C93.8815 25.0113 91.5808 25.544 89.0195 25.544ZM89.0195 19.05C90.0168 19.05 90.9122 18.812 91.7055 18.336C92.5215 17.8373 93.1675 17.146 93.6435 16.262C94.1195 15.3553 94.3575 14.3013 94.3575 13.1C94.3575 11.8987 94.1195 10.856 93.6435 9.972C93.1675 9.06533 92.5215 8.374 91.7055 7.898C90.9122 7.39933 90.0168 7.15 89.0195 7.15C88.0222 7.15 87.1155 7.39933 86.2995 7.898C85.5062 8.374 84.8715 9.06533 84.3955 9.972C83.9195 10.856 83.6815 11.8987 83.6815 13.1C83.6815 14.3013 83.9195 15.3553 84.3955 16.262C84.8715 17.146 85.5062 17.8373 86.2995 18.336C87.1155 18.812 88.0222 19.05 89.0195 19.05Z" fill="#182F65"/>
</svg>
